<?xml version="1.0" standalone="no"?>
<!DOCTYPE svg PUBLIC "-//W3C//DTD SVG 20010904//EN"
 "http://www.w3.org/TR/2001/REC-SVG-20010904/DTD/svg10.dtd">
<svg version="1.0" xmlns="http://www.w3.org/2000/svg"
 width="1200.000000pt" height="1200.000000pt" viewBox="0 0 1200.000000 1200.000000"
 preserveAspectRatio="xMidYMid meet">

<g transform="translate(0.000000,1200.000000) scale(0.100000,-0.100000)"
fill="#000000" stroke="none">
<path d="M5828 9657 c-76 -45 -138 -85 -138 -90 0 -13 233 -348 238 -342 8 8
213 448 210 450 -26 24 -116 65 -141 64 -21 0 -79 -28 -169 -82z"/>
<path d="M6161 9578 c-16 -34 -65 -141 -110 -237 -45 -96 -81 -179 -79 -186 6
-24 553 -813 559 -807 11 12 449 820 449 829 0 7 -752 451 -781 461 -5 2 -22
-25 -38 -60z"/>
<path d="M4910 9121 l-715 -418 -3 -99 -2 -99 430 -525 c237 -289 439 -533
448 -542 16 -17 40 32 422 848 l405 865 22 -25 21 -25 12 30 c10 24 10 33 -5
56 l-18 26 -15 -28 -14 -28 -19 24 c-10 13 -69 99 -131 191 -62 92 -115 167
-118 167 -3 0 -327 -188 -720 -418z"/>
<path d="M6855 8817 c-99 -183 -204 -376 -233 -430 l-54 -99 -22 21 -23 21
-11 -25 c-10 -21 -9 -30 5 -51 l16 -26 15 27 c7 15 18 23 22 19 5 -5 207 -299
450 -654 243 -355 447 -651 454 -658 10 -10 46 49 174 285 l162 297 -2 579 -3
580 -383 223 c-210 123 -384 224 -385 224 -1 -1 -83 -150 -182 -333z"/>
<path d="M5530 8231 c-222 -474 -406 -861 -409 -861 -4 0 -12 10 -20 22 l-13
22 -15 -28 c-15 -28 -15 -28 -33 -10 -10 11 -205 248 -434 527 l-416 508 0
-913 1 -913 195 -113 c108 -63 199 -110 204 -105 4 4 107 222 229 483 122 261
226 482 231 490 8 13 12 11 26 -9 l17 -24 14 27 c8 15 17 24 21 22 5 -3 122
-144 262 -315 195 -238 257 -308 266 -298 16 18 834 1524 834 1536 0 10 -520
774 -544 799 -10 11 -89 -150 -416 -847z"/>
<path d="M6527 8213 c-5 -8 -699 -1285 -784 -1440 -24 -46 -48 -85 -53 -88 -5
-3 -15 4 -23 15 l-15 21 -18 -24 -19 -25 -255 313 c-140 173 -258 314 -261
314 -7 1 -461 -970 -456 -975 9 -9 588 -344 595 -344 4 0 90 153 191 340 102
187 188 340 192 340 3 0 12 -7 19 -15 17 -20 27 -19 35 6 4 11 11 19 15 17 5
-2 171 -201 370 -443 198 -242 366 -439 373 -437 7 2 147 82 313 179 l301 176
198 363 c108 200 201 366 205 369 5 3 15 -4 24 -16 l14 -21 14 21 c7 11 16 21
20 21 4 0 55 -71 114 -157 59 -87 109 -160 110 -162 2 -2 17 2 34 9 l30 12 0
416 c0 228 -2 413 -4 411 -2 -2 -65 -116 -140 -253 -75 -137 -139 -252 -142
-255 -3 -3 -14 5 -23 18 l-19 24 -14 -27 c-11 -22 -17 -25 -25 -14 -6 7 -210
303 -453 658 -243 355 -445 649 -450 653 -4 5 -10 5 -13 0z"/>
<path d="M7318 6518 c-91 -167 -164 -305 -162 -307 1 -1 124 68 273 154 171
100 268 161 264 169 -7 11 -82 122 -156 229 -22 31 -43 57 -47 57 -4 0 -82
-136 -172 -302z"/>
<path d="M5495 6319 c-87 -161 -168 -310 -181 -333 l-23 -41 338 -197 c249
-146 347 -198 370 -198 23 0 84 29 201 98 93 53 168 100 167 104 -4 14 -699
858 -706 858 -4 0 -78 -131 -166 -291z"/>
<path d="M4740 4201 l0 -381 65 0 c55 0 65 3 66 18 0 9 2 71 2 137 l2 120 100
5 c112 6 149 21 162 68 5 15 8 95 8 178 0 225 0 226 -242 232 l-163 4 0 -381z
m268 137 c3 -145 4 -143 -89 -136 l-44 3 -1 133 -1 133 66 -3 66 -3 3 -127z"/>
<path d="M5310 4200 l0 -380 170 0 170 0 0 50 0 50 -99 0 c-86 0 -100 2 -104
18 -3 9 -5 148 -5 307 0 160 -1 300 -1 313 -1 20 -6 22 -66 22 l-65 0 0 -380z"/>
<path d="M5780 4235 l0 -345 29 -32 29 -33 135 0 c145 0 176 8 196 52 7 16 11
136 11 363 l0 340 -65 0 -65 0 0 -320 c0 -305 -1 -320 -19 -330 -11 -5 -34
-10 -51 -10 -17 0 -40 5 -51 10 -18 10 -19 25 -19 330 l0 320 -65 0 -65 0 0
-345z"/>
<path d="M6330 4525 l0 -55 65 0 65 0 0 -325 0 -326 68 3 67 3 0 323 0 322 67
0 68 0 0 55 0 55 -200 0 -200 0 0 -55z"/>
<path d="M6936 4566 c-72 -27 -74 -35 -74 -366 -1 -311 3 -335 58 -362 50 -25
240 -25 290 0 58 29 60 37 60 360 0 383 5 373 -185 379 -79 2 -121 -1 -149
-11z m194 -365 c0 -236 -2 -270 -16 -275 -24 -9 -73 -7 -95 4 -18 10 -19 24
-19 269 0 142 3 261 7 264 3 4 33 7 65 7 l58 0 0 -269z"/>
</g>
</svg>
